<?xml version="1.0" encoding="UTF-8" standalone="no"?>
<!DOCTYPE svg PUBLIC "-//W3C//DTD SVG 1.1//EN"
 "http://www.w3.org/Graphics/SVG/1.1/DTD/svg11.dtd">
<!-- Generated by graphviz version 2.38.0 (20140413.2041)
 -->
<!-- Title: G Pages: 1 -->
<svg width="134pt" height="263pt"
 viewBox="0.00 0.00 134.00 263.00" xmlns="http://www.w3.org/2000/svg" xmlns:xlink="http://www.w3.org/1999/xlink">
<g id="graph0" class="graph" transform="scale(1 1) rotate(0) translate(4 259)">
<title>G</title>
<polygon fill="white" stroke="none" points="-4,4 -4,-259 130,-259 130,4 -4,4"/>
<!-- object -->
<g id="node1" class="node"><title>object</title>
<ellipse fill="none" stroke="red" cx="63" cy="-237" rx="32.4942" ry="18"/>
<text text-anchor="middle" x="63" y="-233.3" font-family="Times,serif" font-size="14.00">object</text>
</g>
<!-- Root -->
<g id="node2" class="node"><title>Root</title>
<polygon fill="none" stroke="black" points="36,-146.5 36,-182.5 90,-182.5 90,-146.5 36,-146.5"/>
<text text-anchor="middle" x="63" y="-160.8" font-family="Times,serif" font-size="14.00">Root</text>
</g>
<!-- object&#45;&gt;Root -->
<g id="edge1" class="edge"><title>object&#45;&gt;Root</title>
<path fill="none" stroke="black" d="M63,-218.934C63,-211.17 63,-201.784 63,-193.06"/>
<polygon fill="black" stroke="black" points="66.5001,-192.899 63,-182.899 59.5001,-192.899 66.5001,-192.899"/>
</g>
<!-- Base1 -->
<g id="node3" class="node"><title>Base1</title>
<polygon fill="none" stroke="black" points="0,-73.5 0,-109.5 54,-109.5 54,-73.5 0,-73.5"/>
<text text-anchor="middle" x="27" y="-87.8" font-family="Times,serif" font-size="14.00">Base1</text>
</g>
<!-- Root&#45;&gt;Base1 -->
<g id="edge2" class="edge"><title>Root&#45;&gt;Base1</title>
<path fill="none" stroke="black" d="M54.2854,-146.313C50.0846,-138.028 44.9545,-127.91 40.2811,-118.693"/>
<polygon fill="black" stroke="black" points="43.2784,-116.865 35.6343,-109.529 37.0351,-120.031 43.2784,-116.865"/>
</g>
<!-- Base2 -->
<g id="node5" class="node"><title>Base2</title>
<polygon fill="none" stroke="black" points="72,-73.5 72,-109.5 126,-109.5 126,-73.5 72,-73.5"/>
<text text-anchor="middle" x="99" y="-87.8" font-family="Times,serif" font-size="14.00">Base2</text>
</g>
<!-- Root&#45;&gt;Base2 -->
<g id="edge4" class="edge"><title>Root&#45;&gt;Base2</title>
<path fill="none" stroke="black" d="M71.7146,-146.313C75.9154,-138.028 81.0455,-127.91 85.7189,-118.693"/>
<polygon fill="black" stroke="black" points="88.9649,-120.031 90.3657,-109.529 82.7216,-116.865 88.9649,-120.031"/>
</g>
<!-- Derivate -->
<g id="node4" class="node"><title>Derivate</title>
<polygon fill="none" stroke="black" points="31.5,-0.5 31.5,-36.5 94.5,-36.5 94.5,-0.5 31.5,-0.5"/>
<text text-anchor="middle" x="63" y="-14.8" font-family="Times,serif" font-size="14.00">Derivate</text>
</g>
<!-- Base1&#45;&gt;Derivate -->
<g id="edge3" class="edge"><title>Base1&#45;&gt;Derivate</title>
<path fill="none" stroke="black" d="M35.7146,-73.3129C39.9154,-65.0279 45.0455,-54.9103 49.7189,-45.6933"/>
<polygon fill="black" stroke="black" points="52.9649,-47.0307 54.3657,-36.5288 46.7216,-43.865 52.9649,-47.0307"/>
</g>
<!-- Base2&#45;&gt;Derivate -->
<g id="edge5" class="edge"><title>Base2&#45;&gt;Derivate</title>
<path fill="none" stroke="black" d="M90.2854,-73.3129C86.0846,-65.0279 80.9545,-54.9103 76.2811,-45.6933"/>
<polygon fill="black" stroke="black" points="79.2784,-43.865 71.6343,-36.5288 73.0351,-47.0307 79.2784,-43.865"/>
</g>
</g>
</svg>
